<svg width="173" height="141" viewBox="0 0 173 141" fill="none" xmlns="http://www.w3.org/2000/svg">
<g filter="url(#filter0_i_762_2509)">
<path d="M140.4 0C148.718 4.86286e-05 155.461 6.74281 155.461 15.0605V83.1611C155.461 84.7679 155.208 86.3156 154.742 87.7676C157.487 89.3371 159.728 91.7615 161.055 94.7773L171.709 119.006C176.086 128.959 168.796 140.129 157.923 140.129H15.0811C3.82204 140.129 -3.45673 128.226 1.6748 118.204L14.0811 93.9766C15.0359 92.1119 16.3482 90.5037 17.9092 89.2178C17.0941 87.3644 16.6407 85.3157 16.6406 83.1611V15.0605C16.6406 6.74278 23.3844 0 31.7021 0H140.4Z" fill="#D9D9D9"/>
<path d="M140.4 0C148.718 4.86286e-05 155.461 6.74281 155.461 15.0605V83.1611C155.461 84.7679 155.208 86.3156 154.742 87.7676C157.487 89.3371 159.728 91.7615 161.055 94.7773L171.709 119.006C176.086 128.959 168.796 140.129 157.923 140.129H15.0811C3.82204 140.129 -3.45673 128.226 1.6748 118.204L14.0811 93.9766C15.0359 92.1119 16.3482 90.5037 17.9092 89.2178C17.0941 87.3644 16.6407 85.3157 16.6406 83.1611V15.0605C16.6406 6.74278 23.3844 0 31.7021 0H140.4Z" fill="url(#paint0_linear_762_2509)"/>
<path opacity="0.5" d="M30.3926 24.8829C30.3926 16.5652 37.1355 9.82227 45.4532 9.82227H125.995C134.313 9.82227 141.056 16.5651 141.056 24.8829V73.3389C141.056 81.6566 134.313 88.3995 125.995 88.3995H45.4532C37.1354 88.3995 30.3926 81.6567 30.3926 73.3389V24.8829Z" fill="#EFCB31"/>
<path opacity="0.5" d="M53.7946 112.685C55.8643 108.631 60.032 106.079 64.5839 106.079H110.257C115.411 106.079 120.001 109.341 121.696 114.208C124.439 122.081 118.594 130.307 110.257 130.307H64.5839C55.5342 130.307 49.6798 120.745 53.7946 112.685Z" fill="#EFCB31"/>
<path d="M76.0967 31.0244C82.2009 31.0245 87.1492 35.9729 87.1494 42.0771C87.1494 44.7105 86.2268 47.1276 84.6895 49.0264C86.6904 49.9743 88.5096 51.2426 90.0811 52.7656C90.8202 52.2633 91.6006 51.8175 92.415 51.4316C91.0809 49.7841 90.2813 47.6864 90.2812 45.4014C90.2812 40.1047 94.5745 35.8107 99.8711 35.8105C105.168 35.8105 109.462 40.1046 109.462 45.4014C109.462 47.6868 108.661 49.784 107.326 51.4316C113.227 54.2267 117.309 60.2354 117.309 67.1982H82.4336V67.1973H56C56 59.1731 60.7032 52.2479 67.5029 49.0264C65.9657 47.1277 65.0439 44.7104 65.0439 42.0771C65.0441 35.9729 69.9923 31.0244 76.0967 31.0244Z" fill="#D9D9D9"/>
<path d="M76.0967 31.0244C82.2009 31.0245 87.1492 35.9729 87.1494 42.0771C87.1494 44.7105 86.2268 47.1276 84.6895 49.0264C86.6904 49.9743 88.5096 51.2426 90.0811 52.7656C90.8202 52.2633 91.6006 51.8175 92.415 51.4316C91.0809 49.7841 90.2813 47.6864 90.2812 45.4014C90.2812 40.1047 94.5745 35.8107 99.8711 35.8105C105.168 35.8105 109.462 40.1046 109.462 45.4014C109.462 47.6868 108.661 49.784 107.326 51.4316C113.227 54.2267 117.309 60.2354 117.309 67.1982H82.4336V67.1973H56C56 59.1731 60.7032 52.2479 67.5029 49.0264C65.9657 47.1277 65.0439 44.7104 65.0439 42.0771C65.0441 35.9729 69.9923 31.0244 76.0967 31.0244Z" fill="url(#paint1_linear_762_2509)"/>
<path d="M94.5187 31.8617C94.5187 31.0294 93.8157 30.3545 92.9485 30.3545C92.3004 30.3545 91.7437 30.7316 91.5042 31.2699C91.2647 30.7316 90.7081 30.3545 90.0596 30.3545C89.1931 30.3545 88.4897 31.0294 88.4897 31.8617C88.4897 33.687 90.2071 35.0467 91.0493 35.6038C91.3277 35.7879 91.6808 35.7879 91.9591 35.6038C92.8014 35.0467 94.5187 33.687 94.5187 31.8617Z" fill="#D9D9D9"/>
<path d="M94.5187 31.8617C94.5187 31.0294 93.8157 30.3545 92.9485 30.3545C92.3004 30.3545 91.7437 30.7316 91.5042 31.2699C91.2647 30.7316 90.7081 30.3545 90.0596 30.3545C89.1931 30.3545 88.4897 31.0294 88.4897 31.8617C88.4897 33.687 90.2071 35.0467 91.0493 35.6038C91.3277 35.7879 91.6808 35.7879 91.9591 35.6038C92.8014 35.0467 94.5187 33.687 94.5187 31.8617Z" fill="url(#paint2_linear_762_2509)"/>
<path d="M97.8679 27.1875C97.8679 26.5317 97.3211 26 96.6466 26C96.1425 26 95.7096 26.2971 95.5233 26.7212C95.337 26.2971 94.9041 26 94.3997 26C93.7258 26 93.1787 26.5317 93.1787 27.1875C93.1787 28.554 94.3846 29.5892 95.0668 30.0655C95.3435 30.2587 95.7031 30.2587 95.9798 30.0655C96.662 29.5892 97.8679 28.554 97.8679 27.1875Z" fill="#D9D9D9"/>
<path d="M97.8679 27.1875C97.8679 26.5317 97.3211 26 96.6466 26C96.1425 26 95.7096 26.2971 95.5233 26.7212C95.337 26.2971 94.9041 26 94.3997 26C93.7258 26 93.1787 26.5317 93.1787 27.1875C93.1787 28.554 94.3846 29.5892 95.0668 30.0655C95.3435 30.2587 95.7031 30.2587 95.9798 30.0655C96.662 29.5892 97.8679 28.554 97.8679 27.1875Z" fill="url(#paint3_linear_762_2509)"/>
</g>
<defs>
<filter id="filter0_i_762_2509" x="-2" y="0" width="175" height="141.129" filterUnits="userSpaceOnUse" color-interpolation-filters="sRGB">
<feFlood flood-opacity="0" result="BackgroundImageFix"/>
<feBlend mode="normal" in="SourceGraphic" in2="BackgroundImageFix" result="shape"/>
<feColorMatrix in="SourceAlpha" type="matrix" values="0 0 0 0 0 0 0 0 0 0 0 0 0 0 0 0 0 0 127 0" result="hardAlpha"/>
<feOffset dx="-3" dy="1"/>
<feGaussianBlur stdDeviation="1"/>
<feComposite in2="hardAlpha" operator="arithmetic" k2="-1" k3="1"/>
<feColorMatrix type="matrix" values="0 0 0 0 0 0 0 0 0 0 0 0 0 0 0 0 0 0 0.1 0"/>
<feBlend mode="normal" in2="shape" result="effect1_innerShadow_762_2509"/>
</filter>
<linearGradient id="paint0_linear_762_2509" x1="86.5001" y1="0" x2="86.5001" y2="140.129" gradientUnits="userSpaceOnUse">
<stop stop-color="#FCF6C6"/>
<stop offset="1" stop-color="#FFE887"/>
</linearGradient>
<linearGradient id="paint1_linear_762_2509" x1="57.7393" y1="69.7914" x2="91.8719" y2="29.1364" gradientUnits="userSpaceOnUse">
<stop stop-color="#FDEBEA"/>
<stop offset="1" stop-color="#F98DB8"/>
</linearGradient>
<linearGradient id="paint2_linear_762_2509" x1="91.5042" y1="30.3545" x2="91.5042" y2="35.881" gradientUnits="userSpaceOnUse">
<stop stop-color="#FDEBEA"/>
<stop offset="1" stop-color="#F98DB8"/>
</linearGradient>
<linearGradient id="paint3_linear_762_2509" x1="95.5233" y1="26" x2="95.5233" y2="30.3542" gradientUnits="userSpaceOnUse">
<stop stop-color="#FDEBEA"/>
<stop offset="1" stop-color="#F98DB8"/>
</linearGradient>
</defs>
</svg>
