<svg width="39" height="39" viewBox="0 0 39 39" fill="none" xmlns="http://www.w3.org/2000/svg">
<path d="M6.10303 24.5981L12.9904 17.7107C13.2693 17.4318 13.6005 17.2105 13.9649 17.0595C14.3293 16.9086 14.7199 16.8309 15.1144 16.8309C15.5089 16.8309 15.8995 16.9086 16.2639 17.0595C16.6283 17.2105 16.9595 17.4318 17.2384 17.7107L24.1258 24.5981M22.1232 22.5955L24.0043 20.7145C24.2832 20.4356 24.6144 20.2143 24.9788 20.0633C25.3432 19.9124 25.7338 19.8347 26.1283 19.8347C26.5228 19.8347 26.9134 19.9124 27.2778 20.0633C27.6422 20.2143 27.9734 20.4356 28.2523 20.7145L32.1359 24.5981M8.10555 29.6044H30.1334C30.6645 29.6044 31.1738 29.3934 31.5494 29.0178C31.9249 28.6423 32.1359 28.1329 32.1359 27.6018V11.5816C32.1359 11.0505 31.9249 10.5412 31.5494 10.1656C31.1738 9.79008 30.6645 9.5791 30.1334 9.5791H8.10555C7.57445 9.5791 7.0651 9.79008 6.68955 10.1656C6.31401 10.5412 6.10303 11.0505 6.10303 11.5816V27.6018C6.10303 28.1329 6.31401 28.6423 6.68955 29.0178C7.0651 29.3934 7.57445 29.6044 8.10555 29.6044ZM22.1232 14.5854H22.1339V14.5961H22.1232V14.5854ZM22.6239 14.5854C22.6239 14.7182 22.5711 14.8455 22.4772 14.9394C22.3834 15.0333 22.256 15.0861 22.1232 15.0861C21.9905 15.0861 21.8631 15.0333 21.7692 14.9394C21.6754 14.8455 21.6226 14.7182 21.6226 14.5854C21.6226 14.4526 21.6754 14.3253 21.7692 14.2314C21.8631 14.1375 21.9905 14.0848 22.1232 14.0848C22.256 14.0848 22.3834 14.1375 22.4772 14.2314C22.5711 14.3253 22.6239 14.4526 22.6239 14.5854Z" stroke="black" stroke-width="3" stroke-linecap="round" stroke-linejoin="round"/>
</svg>
